<?xml version="1.0" encoding="utf-8"?>
<!-- Generator: Adobe Illustrator 25.3.0, SVG Export Plug-In . SVG Version: 6.00 Build 0)  -->
<svg version="1.1" id="Layer_1" xmlns="http://www.w3.org/2000/svg" xmlns:xlink="http://www.w3.org/1999/xlink" x="0px" y="0px"
	 viewBox="0 0 10 8.5" style="enable-background:new 0 0 10 8.5;" xml:space="preserve">
<style type="text/css">
	.st0{opacity:0.16;enable-background:new    ;}
	.st1{fill:#E8CF1A;}
	.st2{fill:#8C5E02;}
</style>
<g>
	<path d="M5.2,3.7L5,3.7c0,0,0,0-0.1,0c0,0,0,0,0-0.1c0,0,0-0.1,0-0.2C5,3.4,5,3.4,5,3.3l0.1,0c0,0,0,0,0-0.1l0-0.1c0,0,0,0-0.1,0
		L5,3.1c0,0-0.1,0-0.1,0c-0.1,0-0.1,0.1-0.2,0.1C4.7,3.4,4.7,3.5,4.7,3.5l0,0c0,0,0,0,0,0c0,0,0,0.1,0,0.1c0,0.1,0,0.2,0.1,0.2
		c0,0,0,0,0,0l0.1,0.3c0,0.1,0.1,0.1,0.2,0.1l0.4-0.1c0.1,0,0.1-0.1,0.1-0.2L5.4,3.8C5.4,3.7,5.3,3.6,5.2,3.7z"/>
	<path class="st0" d="M5.6,3.7l0.2-0.1c0,0,0,0,0.1,0s0,0,0,0.1c0,0,0,0.1,0,0.2C5.8,4,5.8,4,5.7,4L5.6,4c0,0,0,0,0,0.1l0,0.1
		c0,0,0,0,0.1,0l0.1,0c0,0,0.1,0,0.1,0C6,4.1,6,4.1,6,4c0.1-0.1,0.1-0.2,0.1-0.2l0,0c0,0,0,0,0,0c0,0,0-0.1,0-0.1
		c0-0.1,0-0.2-0.1-0.2c0,0,0,0,0,0L5.9,3.1C5.9,3,5.8,3,5.8,3L5.4,3.1c-0.1,0-0.1,0.1-0.1,0.2l0.1,0.3C5.4,3.7,5.5,3.7,5.6,3.7z"/>
</g>
<g>
	<path class="st1" d="M5.2,8.2h0.3C5.3,8,5.2,7.7,5.2,7.4V5.6H4.4v1.8C4.4,7.8,4.7,8.2,5.2,8.2z"/>
	<path class="st1" d="M8.5,8.2h0.6v0C9,7.9,8.9,7.7,8.9,7.4V5.6H8.4v0.6H8.1V5.6H5.5v1.8c0,0.4,0.4,0.8,0.8,0.8h1
		C7.2,8,7.1,7.7,7.1,7.4h0.3C7.4,7.8,7.9,8.2,8.5,8.2z"/>
</g>
<path d="M9.2,7.4V5.6h0.2V5.4C9.4,5,9,4.6,8.5,4.6H7.3v-4C7.3,0.3,7,0,6.6,0S6,0.3,6,0.6v4H4.7C4.2,4.6,3.9,5,3.9,5.4v0.2H4v1.8
	C4,8,4.5,8.5,5.2,8.5h2.6V8.3C8,8.4,8.3,8.5,8.5,8.5H10V8.2C9.6,8.2,9.2,7.8,9.2,7.4z M6.3,0.7c0-0.2,0.1-0.3,0.3-0.3
	c0.2,0,0.3,0.1,0.3,0.3v3.1H6.3V0.7z M6.3,4.1h0.6v0.5H6.3V4.1z M4.7,4.9h3.9c0.2,0,0.4,0.1,0.5,0.3H4.2C4.3,5.1,4.5,4.9,4.7,4.9z
	 M5.2,8.2c-0.4,0-0.8-0.4-0.8-0.8V5.6h0.8v1.8c0,0.3,0.1,0.6,0.3,0.8H5.2z M8.5,8.2c-0.6,0-1.1-0.4-1.1-0.8H7.1
	c0,0.3,0.1,0.6,0.2,0.8h-1c-0.4,0-0.8-0.4-0.8-0.8V5.6h2.6v0.6h0.3V5.6h0.5v1.8C8.9,7.7,9,8,9.2,8.2H8.5z"/>
<g>
	<rect x="6.3" y="4.1" class="st2" width="0.6" height="0.5"/>
	<path class="st2" d="M6.3,3.8h0.6V0.7c0-0.2-0.1-0.3-0.3-0.3c-0.2,0-0.3,0.1-0.3,0.3V3.8z"/>
	<path class="st2" d="M4.2,5.3H9C8.9,5.1,8.8,4.9,8.5,4.9H4.7C4.5,4.9,4.3,5.1,4.2,5.3z"/>
</g>
<rect x="8.1" y="6.5" width="0.3" height="0.3"/>
<path d="M1.7,6.7H1.4c0,0.3,0.1,0.6,0.2,0.8c-0.4-0.4-0.7-1-0.7-1.6H0.6c0,1.4,1.2,2.6,2.6,2.6V8.2C2.3,8.2,1.7,7.5,1.7,6.7z"/>
<rect x="1.4" y="5.9" width="0.3" height="0.3"/>
<rect x="0.6" y="5.3" width="0.3" height="0.3"/>
<rect x="0.6" y="4.6" width="0.3" height="0.3"/>
<g>
	<path d="M2.3,2.6L1.7,2.3c0,0-0.1-0.1-0.1-0.2c0-0.1,0-0.1,0-0.2c0,0,0.1-0.3,0.4-0.3c0.1,0,0.2,0,0.3,0l0.2,0.1c0.1,0,0.1,0,0.2,0
		L3,1.6c0-0.1,0-0.1-0.1-0.2L2.7,1.4c-0.1,0-0.1-0.1-0.3-0.1c-0.3-0.1-0.5,0-0.6,0C1.7,1.3,1.5,1.4,1.4,1.5l0,0c0,0,0,0.1-0.1,0.1
		c0,0.1-0.1,0.1-0.1,0.2C1.1,2,1,2.1,0.9,2.3c0,0,0,0,0,0L0.5,3.1c-0.1,0.2,0,0.4,0.2,0.5L1.5,4C1.7,4.1,1.9,4.1,2,3.9l0.4-0.8
		C2.5,3,2.5,2.7,2.3,2.6z"/>
	<path class="st0" d="M2.9,3.2l0.5,0.3c0,0,0.1,0.1,0.1,0.2c0,0.1,0,0.1,0,0.2c0,0-0.1,0.3-0.4,0.3c-0.1,0-0.2,0-0.3,0L2.4,4
		C2.4,4,2.3,4,2.3,4L2.1,4.3c0,0.1,0,0.1,0.1,0.2l0.1,0.1c0.1,0,0.1,0.1,0.3,0.1c0.3,0.1,0.5,0,0.6,0c0.3-0.1,0.5-0.2,0.5-0.3l0,0
		c0,0,0-0.1,0.1-0.1c0-0.1,0.1-0.1,0.1-0.2C4,3.9,4.1,3.8,4.2,3.6c0,0,0,0,0,0l0.4-0.8c0.1-0.2,0-0.4-0.2-0.5L3.6,1.8
		C3.4,1.7,3.2,1.8,3.1,2L2.7,2.7C2.6,2.9,2.7,3.1,2.9,3.2z"/>
</g>
<g>
	<path d="M3,6.3L2.8,6.2c0,0,0,0,0-0.1s0,0,0-0.1c0,0,0-0.1,0.1-0.1C3,6,3,6,3,6l0.1,0c0,0,0,0,0.1,0l0-0.1c0,0,0,0,0-0.1l-0.1,0
		c0,0,0,0-0.1,0c-0.1,0-0.2,0-0.2,0C2.8,5.9,2.7,5.9,2.7,6l0,0c0,0,0,0,0,0c0,0,0,0,0,0.1c0,0.1-0.1,0.1-0.1,0.2c0,0,0,0,0,0
		L2.4,6.5c0,0.1,0,0.1,0.1,0.2l0.3,0.2c0.1,0,0.1,0,0.2,0L3,6.5C3.1,6.4,3,6.4,3,6.3z"/>
	<path class="st0" d="M3.2,6.5l0.2,0.1c0,0,0,0,0,0.1c0,0,0,0,0,0.1c0,0,0,0.1-0.1,0.1c0,0-0.1,0-0.1,0L3,6.8c0,0,0,0-0.1,0l0,0.1
		c0,0,0,0,0,0.1l0,0c0,0,0,0,0.1,0c0.1,0,0.2,0,0.2,0c0.1,0,0.1-0.1,0.2-0.1l0,0c0,0,0,0,0,0c0,0,0,0,0-0.1c0-0.1,0.1-0.1,0.1-0.2
		c0,0,0,0,0,0l0.1-0.2c0-0.1,0-0.1-0.1-0.2L3.4,6.1c-0.1,0-0.1,0-0.2,0L3.1,6.4C3.1,6.4,3.1,6.5,3.2,6.5z"/>
</g>
</svg>
