<?xml version="1.0" encoding="utf-8"?>
<!-- Generator: Adobe Illustrator 25.3.0, SVG Export Plug-In . SVG Version: 6.00 Build 0)  -->
<svg version="1.1" id="Layer_1_1_" xmlns="http://www.w3.org/2000/svg" xmlns:xlink="http://www.w3.org/1999/xlink" x="0px" y="0px"
	 viewBox="0 0 8.6 8.6" style="enable-background:new 0 0 8.6 8.6;" xml:space="preserve">
<style type="text/css">
	.st0{fill:#A3A3A3;}
</style>
<path class="st0" d="M5,4.3l3.4-3.4c0.2-0.2,0.2-0.5,0-0.7S7.9,0,7.7,0.1L4.3,3.6L0.9,0.1C0.7,0,0.3,0,0.1,0.1S0,0.7,0.1,0.9
	l3.4,3.4L0.1,7.7C0,7.9,0,8.3,0.1,8.5c0.1,0.1,0.2,0.1,0.4,0.1s0.3,0,0.4-0.1L4.3,5l3.4,3.4C7.8,8.6,8,8.6,8.1,8.6
	c0.1,0,0.3,0,0.4-0.1c0.2-0.2,0.2-0.5,0-0.7L5,4.3z"/>
</svg>
