<?xml version="1.0" encoding="utf-8"?>
<!-- Generator: Adobe Illustrator 25.3.0, SVG Export Plug-In . SVG Version: 6.00 Build 0)  -->
<svg version="1.1" id="Layer_1_1_" xmlns="http://www.w3.org/2000/svg" xmlns:xlink="http://www.w3.org/1999/xlink" x="0px" y="0px"
	 viewBox="0 0 9.1 8.6" style="enable-background:new 0 0 9.1 8.6;" xml:space="preserve">
<style type="text/css">
	.st0{fill:#F7F7F7;}
	.st1{opacity:0.16;enable-background:new    ;}
	.st2{fill:url(#SVGID_1_);}
</style>
<rect x="1.3" y="0.2" class="st0" width="6.3" height="3.8"/>
<g>
	<path d="M4.2,2.1H3.8c0,0-0.1,0-0.1-0.1c0,0,0-0.1,0-0.1c0,0,0-0.2,0.2-0.4C3.9,1.5,4,1.4,4,1.4h0.2c0.1,0,0.1,0,0.1-0.1V1.1
		c0-0.1,0-0.1-0.1-0.1H4.1C4,1,4,1,3.9,1.1c-0.2,0-0.3,0.2-0.4,0.2C3.3,1.4,3.3,1.6,3.3,1.6l0,0c0,0,0,0.1,0,0.1c0,0.1,0,0.1,0,0.2
		c0,0.2,0,0.3,0,0.4c0,0,0,0,0,0V3c0,0.2,0.1,0.3,0.3,0.3h0.7c0.2,0,0.3-0.1,0.3-0.3V2.4C4.5,2.2,4.4,2.1,4.2,2.1z"/>
	<path class="st1" d="M4.9,2.3h0.4c0,0,0.1,0,0.1,0.1c0,0,0,0.1,0,0.1c0,0,0,0.2-0.2,0.4C5.2,2.9,5.1,2.9,5.1,2.9H4.9
		C4.8,2.9,4.8,3,4.8,3v0.2c0,0.1,0,0.1,0.1,0.1H5c0.1,0,0.1,0,0.2,0c0.2,0,0.3-0.2,0.4-0.2c0.2-0.1,0.2-0.3,0.2-0.4l0,0
		c0,0,0-0.1,0-0.1c0-0.1,0-0.1,0-0.2c0-0.2,0-0.3,0-0.4c0,0,0,0,0,0V1.3c0-0.2-0.1-0.3-0.3-0.3H4.9c-0.2,0-0.3,0.1-0.3,0.3V2
		C4.6,2.1,4.7,2.3,4.9,2.3z"/>
	<linearGradient id="SVGID_1_" gradientUnits="userSpaceOnUse" x1="-1.7682" y1="2.9314" x2="12.1593" y2="9.5914">
		<stop  offset="0" style="stop-color:#E4BCED"/>
		<stop  offset="1" style="stop-color:#CF60EA"/>
	</linearGradient>
	<rect x="0.2" y="3.7" class="st2" width="8.7" height="4.5"/>
</g>
<g>
	<path d="M8.8,0.7C8.6,0.7,8.5,0.8,8.5,1v0.5H8V0.3C8,0.1,7.9,0,7.7,0H1.4C1.2,0,1.1,0.1,1.1,0.3v1.1H0.6V1c0-0.2-0.1-0.3-0.3-0.3
		S0,0.8,0,1v1.6c0,0.2,0.1,0.3,0.3,0.3s0.3-0.1,0.3-0.3V2.1h0.4v1.1H0.3C0.1,3.2,0,3.3,0,3.5v4.8c0,0.2,0.1,0.3,0.3,0.3h8.5
		c0.2,0,0.3-0.1,0.3-0.3V3.5c0-0.2-0.1-0.3-0.3-0.3H8V2.1h0.4v0.5c0,0.2,0.1,0.3,0.3,0.3c0.2,0,0.3-0.1,0.3-0.3V1
		C9.1,0.8,9,0.7,8.8,0.7z M1.7,0.6h5.7v3.1H1.7V0.6z M8.5,3.8v4.1H0.6V3.8h0.4V4c0,0.2,0.1,0.3,0.3,0.3h6.3C7.9,4.3,8,4.2,8,4V3.8
		H8.5z"/>
	<path d="M6.4,5.8H5.9C5.7,5.8,5.6,6,5.6,6.1s0.1,0.3,0.3,0.3h0.5c0.2,0,0.3-0.1,0.3-0.3S6.6,5.8,6.4,5.8z"/>
	<path d="M4.8,5.8H4.3C4.1,5.8,4,6,4,6.1s0.1,0.3,0.3,0.3h0.5c0.2,0,0.3-0.1,0.3-0.3S5,5.8,4.8,5.8z"/>
	<path d="M3.2,6.5c0.2,0,0.3-0.1,0.3-0.3S3.4,5.8,3.2,5.8H2.7C2.5,5.8,2.4,6,2.4,6.1s0.1,0.3,0.3,0.3H3.2z"/>
	<path d="M7.2,4.8H6.7c-0.2,0-0.3,0.1-0.3,0.3s0.1,0.3,0.3,0.3h0.5c0.2,0,0.3-0.1,0.3-0.3C7.5,4.9,7.4,4.8,7.2,4.8z"/>
	<path d="M5.1,5.4h0.5c0.2,0,0.3-0.1,0.3-0.3S5.8,4.8,5.6,4.8H5.1c-0.2,0-0.3,0.1-0.3,0.3C4.8,5.3,4.9,5.4,5.1,5.4z"/>
	<path d="M3.5,5.4H4c0.2,0,0.3-0.1,0.3-0.3S4.2,4.8,4,4.8H3.5c-0.2,0-0.3,0.1-0.3,0.3C3.2,5.3,3.3,5.4,3.5,5.4z"/>
	<path d="M2.8,5.1c0-0.2-0.1-0.3-0.3-0.3H1.9c-0.2,0-0.3,0.1-0.3,0.3s0.1,0.3,0.3,0.3h0.5C2.6,5.4,2.8,5.3,2.8,5.1z"/>
	<path d="M6.1,6.9H3C2.8,6.9,2.6,7,2.6,7.2c0,0.2,0.1,0.3,0.3,0.3h3.2c0.2,0,0.3-0.1,0.3-0.3C6.5,7,6.3,6.9,6.1,6.9z"/>
</g>
</svg>
