<?xml version="1.0" encoding="utf-8"?>
<!-- Generator: Adobe Illustrator 25.3.0, SVG Export Plug-In . SVG Version: 6.00 Build 0)  -->
<svg version="1.1" id="Capa_1" xmlns="http://www.w3.org/2000/svg" xmlns:xlink="http://www.w3.org/1999/xlink" x="0px" y="0px"
	 viewBox="0 0 10.9 10" style="enable-background:new 0 0 10.9 10;" xml:space="preserve">
<style type="text/css">
	.st0{fill:#35353D;}
</style>
<g id="Layer_2">
	<g id="Layer_1-2">
		<path class="st0" d="M10.5,0.9H8.2V0.5C8.2,0.2,8,0,7.7,0c0,0,0,0,0,0H3.2C2.9,0,2.7,0.2,2.7,0.5c0,0,0,0,0,0v0.5H0.5
			C0.2,0.9,0,1.1,0,1.4c0,0.3,0.2,0.5,0.5,0.5h0.9v6.8C1.4,9.4,2,10,2.7,10h5.5c0.8,0,1.4-0.6,1.4-1.4V1.8h0.9
			c0.3,0,0.5-0.2,0.5-0.5S10.7,0.9,10.5,0.9C10.5,0.9,10.5,0.9,10.5,0.9z M8.6,8.6c0,0.3-0.2,0.5-0.5,0.5H2.7
			c-0.3,0-0.5-0.2-0.5-0.5V1.8h6.4V8.6z"/>
		<path class="st0" d="M4.1,7.7c0.3,0,0.5-0.2,0.5-0.5V3.6c0-0.3-0.2-0.5-0.5-0.5c-0.3,0-0.5,0.2-0.5,0.5v3.6
			C3.6,7.5,3.8,7.7,4.1,7.7z"/>
		<path class="st0" d="M6.8,7.7c0.3,0,0.5-0.2,0.5-0.5V3.6c0-0.3-0.2-0.5-0.5-0.5c-0.3,0-0.5,0.2-0.5,0.5v3.6
			C6.4,7.5,6.6,7.7,6.8,7.7z"/>
	</g>
</g>
</svg>
