<?xml version="1.0" encoding="utf-8"?>
<!-- Generator: Adobe Illustrator 25.3.0, SVG Export Plug-In . SVG Version: 6.00 Build 0)  -->
<svg version="1.1" id="Capa_1" xmlns="http://www.w3.org/2000/svg" xmlns:xlink="http://www.w3.org/1999/xlink" x="0px" y="0px"
	 viewBox="0 0 64 58.7" style="enable-background:new 0 0 64 58.7;" xml:space="preserve">
<style type="text/css">
	.st0{fill:url(#SVGID_1_);}
	.st1{fill:#35353D;}
</style>
<linearGradient id="SVGID_1_" gradientUnits="userSpaceOnUse" x1="-10.3807" y1="-14.8272" x2="66.4838" y2="68.6257">
	<stop  offset="0.2915" style="stop-color:#FF512F"/>
	<stop  offset="0.5522" style="stop-color:#F09819"/>
	<stop  offset="1" style="stop-color:#FF512F"/>
</linearGradient>
<path class="st0" d="M13.3,50.7c0,1.5,1.2,2.7,2.7,2.7h32c1.5,0,2.7-1.2,2.7-2.7v-40H13.3V50.7z"/>
<path class="st1" d="M61.3,5.3H48V2.7C48,1.2,46.8,0,45.4,0c0,0,0,0,0,0H18.7C17.2,0,16,1.2,16,2.6c0,0,0,0,0,0v2.7H2.7
	C1.2,5.3,0,6.5,0,8c0,1.5,1.2,2.7,2.7,2.7H8v40c0,4.4,3.6,8,8,8h32c4.4,0,8-3.6,8-8v-40h5.3c1.5,0,2.7-1.2,2.7-2.7
	S62.8,5.3,61.3,5.3C61.3,5.3,61.3,5.3,61.3,5.3z M50.7,50.7c0,1.5-1.2,2.7-2.7,2.7H16c-1.5,0-2.7-1.2-2.7-2.7v-40h37.3V50.7z"/>
<path class="st1" d="M24,45.3c1.5,0,2.7-1.2,2.7-2.7V21.3c0-1.5-1.2-2.7-2.7-2.7c-1.5,0-2.7,1.2-2.7,2.7v21.3
	C21.3,44.1,22.5,45.3,24,45.3z"/>
<path class="st1" d="M40,45.3c1.5,0,2.7-1.2,2.7-2.7V21.3c0-1.5-1.2-2.7-2.7-2.7c-1.5,0-2.7,1.2-2.7,2.7v21.3
	C37.3,44.1,38.5,45.3,40,45.3z"/>
</svg>
