<?xml version="1.0" encoding="utf-8"?>
<!-- Generator: Adobe Illustrator 25.3.0, SVG Export Plug-In . SVG Version: 6.00 Build 0)  -->
<svg version="1.1" id="Layer_1" xmlns="http://www.w3.org/2000/svg" xmlns:xlink="http://www.w3.org/1999/xlink" x="0px" y="0px"
	 viewBox="0 0 31.6 26.5" style="enable-background:new 0 0 31.6 26.5;" xml:space="preserve">
<style type="text/css">
	.st0{fill:#FCA594;stroke:#000000;stroke-miterlimit:10;}
	.st1{opacity:0.16;enable-background:new    ;}
</style>
<path class="st0" d="M26.1,0.5H5.5c-2.8,0-5,2.2-5,5v11.6c0,2.8,2.2,5,5,5h8.2l-0.4,3.7l8.6-3.7h4.2c2.8,0,5-2.2,5-5V5.5
	C31.1,2.8,28.8,0.5,26.1,0.5z"/>
<g>
	<g>
		<path d="M7.5,6H6.2C6,6,5.9,5.9,5.8,5.8c0-0.2,0-0.3-0.1-0.4c0-0.1,0-0.7,0.5-1.1c0.2-0.2,0.5-0.2,0.7-0.2h0.6
			c0.2,0,0.3-0.1,0.3-0.3V3.2c0-0.2-0.1-0.3-0.3-0.3H7.1c-0.2,0-0.4,0-0.7,0C5.8,3,5.4,3.4,5.3,3.5C4.8,4,4.6,4.5,4.6,4.7l0,0
			c0,0.1,0,0.2-0.1,0.3c0,0.2-0.1,0.3-0.1,0.5c0,0.5,0,0.9,0,1.4l0,0v2c0,0.5,0.4,0.8,0.9,0.8h2.2c0.5,0,0.9-0.4,0.9-0.8v-2
			C8.4,6.4,8,6,7.5,6z"/>
		<path class="st1" d="M9.4,6.6h1.3c0.1,0,0.3,0.1,0.3,0.2c0.1,0.1,0.1,0.2,0.1,0.4c0,0.1,0,0.7-0.5,1.1c-0.2,0.2-0.5,0.2-0.7,0.2
			H9.4c-0.2,0-0.3,0.1-0.3,0.3v0.6c0,0.2,0.1,0.3,0.3,0.3h0.4c0.2,0,0.4,0,0.7,0c0.6-0.1,1-0.5,1.1-0.6c0.5-0.4,0.7-0.9,0.7-1.2l0,0
			c0-0.1,0-0.2,0.1-0.3c0-0.2,0.1-0.3,0.1-0.5c0-0.5,0-0.9,0-1.4l0,0v-2c0-0.5-0.4-0.8-0.9-0.8H9.3c-0.5,0-0.9,0.4-0.9,0.8v2
			C8.5,6.2,8.9,6.6,9.4,6.6z"/>
	</g>
	<g transform="translate(0.000000,1280.000000) scale(0.100000,-0.100000)">
		<path class="st1" d="M224.7,12767.2c-2.7-0.3-3.4-0.3-3.6-0.4c-0.3-0.1-0.9-5.4-1.1-9.7l-0.1-1.7l-1.5-0.4
			c-0.8-0.2-1.9-0.6-2.5-0.8c-1.4-0.6-4.5-2.1-5.3-2.6c-0.4-0.2-0.7-0.4-0.7-0.4s-2,1.6-4.4,3.6s-4.4,3.6-4.5,3.7
			c-0.3,0.1-3.1-2.2-5.1-4.4c-2-2-4.2-4.9-4.1-5.1c0.6-0.8,2.8-3.5,4.7-5.8c1.3-1.5,2.4-2.8,2.4-2.9c0.1-0.1-0.1-0.5-0.5-1.1
			c-0.9-1.4-2-3.7-2.4-5.1c-0.2-0.7-0.6-1.8-0.8-2.3s-0.3-1.1-0.3-1.2c0-0.1-0.3-0.2-1-0.3c-5.3-0.5-10.3-1.1-10.4-1.2
			c-0.4-0.4-0.7-5.8-0.5-8.7c0.2-2,0.5-4.2,0.6-4.4c0.1-0.1,4-0.5,10.2-1l1-0.1l0.1-0.6c0.1-0.3,0.2-0.8,0.3-1.2
			c0.1-0.3,0.5-1.3,0.7-2.2c0.5-1.6,1.6-3.9,2.5-5.3c0.3-0.4,0.5-0.9,0.5-1s-1.1-1.4-2.4-3c-3.6-4.3-4.7-5.7-4.6-5.9
			c0.5-0.8,2.6-3.4,4.1-4.9c2-2,5.1-4.6,5.3-4.4c0.1,0.1,1.3,1.2,2.9,2.4c1.5,1.3,3.4,2.8,4.1,3.4c0.7,0.6,1.4,1.2,1.6,1.3
			c0.2,0.1,0.4,0.1,1.8-0.7c1.8-1,4-1.9,6.2-2.5c0.8-0.2,1.6-0.5,1.7-0.5c0.1-0.1,0.3-1.5,0.6-4.1c0.4-3.9,0.8-7.1,0.9-7.3
			c0.1-0.3,4.2-0.5,7.7-0.4c2.8,0.1,5.5,0.3,5.7,0.5c0,0,0.3,2.4,0.5,5.3c0.3,2.9,0.5,5.4,0.6,5.7c0.1,0.5,0.1,0.5,2.4,1.2
			c2,0.6,4.6,1.7,6.1,2.7c0.6,0.4,1.2,0.7,1.3,0.7s0.9-0.7,1.8-1.5c3.1-2.7,7-5.7,7.2-5.7c0.4,0.1,1.9,1.3,2.7,2.1
			c1.7,1.6,6.5,7,6.5,7.4c0,0-1.5,1.9-3.4,4.1c-1.9,2.2-3.5,4.2-3.7,4.4l-0.3,0.4l0.8,1.5c1.1,2,2.1,4.6,2.5,6.3l0.4,1.4l2.5,0.2
			c1.4,0.1,4,0.4,5.8,0.5l3.3,0.3l0.1,0.4c0.2,0.8,0.4,2.9,0.4,5.1c0.1,3.2-0.2,7.8-0.6,8.1c-0.1,0.1-2.7,0.3-5.7,0.6
			c-3.1,0.3-5.6,0.5-5.7,0.6c-0.1,0-0.2,0.4-0.2,0.8c-0.4,1.8-1.5,4.9-2.8,7.2l-0.9,1.6l0.5,0.6c0.3,0.4,1.9,2.3,3.6,4.4
			c1.7,2,3.1,3.8,3.1,3.9c0.1,0.2-1,1.5-2.7,3.5c-2,2.2-6.5,6.1-6.8,5.8c-1.1-0.8-5.1-4.1-6.6-5.3c-1-0.8-1.9-1.6-2-1.7
			c-0.2-0.1-0.7,0.1-3.1,1.3c-2.1,1-3.3,1.6-4.4,1.9c-0.8,0.2-1.6,0.4-1.8,0.4c-0.3,0-0.3,0-0.7,3.4c-0.2,2.6-0.9,8.2-0.9,8.2
			c-0.1,0.1-1.7,0.3-3.4,0.4C229.1,12767.3,225.8,12767.3,224.7,12767.2z M230.9,12739c2.9-0.5,5.8-2,8.2-4.5c2.4-2.4,3.9-5,4.5-8.1
			c1.4-6.7-1.3-13.4-7-17.2c-2.6-1.7-5.1-2.5-8.3-2.6c-3-0.1-5.2,0.3-7.8,1.6c-3.2,1.6-5.6,3.9-7.4,7.2c-1.3,2.5-1.8,4.6-1.8,7.7
			c0,3.8,1,6.8,3.3,9.7c2.9,3.7,6.7,6,10.7,6.3C226.8,12739.2,229.8,12739.2,230.9,12739z"/>
		<path class="st1" d="M224.7,12736.6c-4.9-1.1-8.9-4.8-10.5-9.8c-0.3-1.1-0.4-1.4-0.4-3.8c0-2.8,0.1-3.2,0.9-5.3
			c0.9-2.3,3.2-5.1,5.4-6.6c1.2-0.8,2.9-1.6,4.3-1.9c1.7-0.4,5-0.4,6.6,0c1.9,0.5,3.2,1.2,4.8,2.3c4.3,3.2,6.4,7.9,5.8,13.1
			c-0.4,3.4-1.7,6-4.1,8.3c-1.8,1.7-3.7,2.8-6,3.5C229.9,12736.9,226.5,12737,224.7,12736.6z M229.9,12733.1
			c3.1-0.6,5.9-2.8,7.2-5.5c0.2-0.5,0.6-1.4,0.7-2c0.2-1,0.3-1.4,0.2-3.2s-0.1-2.2-0.5-3.2c-1-3.1-4-5.8-7.4-6.7
			c-1-0.3-3.9-0.3-4.8-0.1c-2,0.5-3.6,1.5-5,2.9c-0.6,0.6-1.3,1.4-1.5,1.8c-3,5-1.4,11.6,3.5,14.5c1,0.6,2.5,1.2,3.5,1.3
			C226.8,12733.4,228.9,12733.3,229.9,12733.1z"/>
		<path d="M173.8,12708.7c-1-2.6-2.2-5.8-3.4-9.2l-1.3-3.7h-1.6c-3.1,0-7.9-0.6-10.6-1.4c-0.9-0.3-1.7-0.5-1.8-0.4
			c0,0-0.5,0.7-1,1.5c-1.9,2.7-7.7,10.6-7.7,10.6c-0.1,0-2.4-0.9-2.9-1.2c-0.3-0.1-1-0.5-1.5-0.8c-0.6-0.3-1.6-0.8-2.4-1.3
			c-0.7-0.4-2-1.2-2.8-1.6c-1.4-0.8-3.4-2.2-4.6-3.3l-0.6-0.6l1.6-3.5c0.9-1.9,2.3-4.9,3.1-6.7l1.5-3.2l-1-1
			c-2.6-2.7-5.8-6.9-6.9-9.1c-0.2-0.4-0.4-0.8-0.5-0.8s-2,0.3-4.2,0.7c-4.4,0.8-10.4,1.7-10.5,1.7c-0.1-0.1-1.4-3.3-1.9-4.8
			c-0.7-2-1.8-7.5-2.3-11.3l-0.1-0.7l6.8-2.6l6.8-2.6v-1.3c0.1-2.3,0.3-5.1,0.6-6.6c0.1-0.8,0.4-1.9,0.5-2.5s0.4-1.6,0.5-2.2
			c0.2-0.6,0.3-1.2,0.3-1.3s-1.3-1.1-2.8-2.2c-1.5-1.1-4.2-3-5.9-4.3c-2.8-2-3.1-2.3-3.1-2.6c0.3-1.2,2.9-6.2,4.7-9.1
			c1-1.6,3-4.4,3.6-5.1l0.4-0.5l2.4,1.1c2.3,1.1,9.9,4.6,10.7,4.9l0.4,0.2l1.8-1.7c2.3-2.1,3.4-3,6.5-4.9c1.9-1.1,2.5-1.6,2.4-1.8
			c0-0.1-0.3-1.9-0.6-3.9c-0.6-3.6-1.6-10.1-1.6-10.4c0-0.1,0.2-0.2,0.4-0.3c3-1.2,5.7-2,9.6-3c2.6-0.6,6.4-1.3,6.5-1.1
			c0.2,0.3,3.5,8.9,4.8,12.5l0.5,1.5h2c3.5,0,6,0.4,9.6,1.4c1.6,0.5,2,0.5,2.1,0.4s2.1-2.9,4.4-6.1c2.3-3.3,4.2-6,4.3-6
			c0-0.1,1.2,0.5,4.9,2.3c1.5,0.7,3.3,1.8,4.6,2.7c2,1.3,4.5,3.1,5.1,3.8c0.2,0.2,0.2,0.3-1.1,3.2c-0.7,1.7-2.1,4.7-3.1,6.8
			l-1.8,3.8l1.6,1.7c2.2,2.3,4.1,5,5.5,7.4c0.3,0.6,0.7,1.2,0.7,1.2c0.1,0,1.3-0.1,2.7-0.4c7.5-1.3,11.9-2,12-1.9
			c0.3,0.1,2.4,6.1,3,8.4c0.1,0.5,0.3,1,0.3,1.2c0.1,0.3,1,5.1,1.1,6.4l0.1,0.6l-0.6,0.3c-0.8,0.4-6.5,2.5-10.3,3.9l-3.1,1.1v2.1
			c0,2.4-0.1,3.8-0.6,6c-0.2,1.3-0.9,4.2-1.1,5.1c-0.1,0.2,0.6,0.7,2.5,2.1c2.9,2.1,9.4,6.9,9.5,7.1c0.1,0.1-0.8,2.3-1.9,4.5
			c-1.6,3.1-3.6,6.3-5.7,9l-1,1.3l-1.8-0.8c-2.5-1.1-6.5-2.9-9.3-4.3l-2.3-1.1l-1.8,1.7c-1.9,1.8-4.2,3.6-5.8,4.5
			c-0.8,0.5-2.5,1.6-2.8,1.8c-0.1,0.1,0.1,1.7,0.4,3.6c1.5,9.6,1.8,11.3,1.7,11.3c0,0-1,0.4-2.1,0.8c-2.4,0.9-5.4,1.9-5.8,1.9
			c-0.2,0-0.6,0.1-1.1,0.3c-1.1,0.4-6.6,1.5-7.4,1.5C174.2,12709.6,174.1,12709.4,173.8,12708.7z M171.3,12673.3
			c3.7-0.7,7.6-2.5,10.4-4.9c3.3-2.9,6.2-8.1,7-12.6c0.3-1.7,0.3-4.7-0.1-6.6c-0.6-3.4-2.1-7.1-3.8-9.4c-3.1-4.1-8.5-7.4-13.7-8.3
			c-1.5-0.3-4.5-0.3-6.1,0c-3.1,0.5-6.5,1.8-8.7,3.1c-4.8,3.1-8.4,8.4-9.5,14.2c-0.3,1.7-0.3,4.8,0,6.7c1.2,6.9,4.4,11.6,10.3,15.2
			c1.5,0.9,3.9,1.9,5.8,2.4C165.4,12673.7,168.7,12673.8,171.3,12673.3z"/>
		<path d="M166.5,12670.6c-2.9-0.3-4.5-0.8-6.9-2.1c-4.7-2.4-7.5-6-9-11.3c-0.7-2.5-0.8-3.2-0.8-5.3c0-1.9,0.2-3.4,0.7-5
			c0.3-1,1.5-3.5,1.6-3.5c0,0,0.5-0.6,0.9-1.2c2-3,4.8-5.2,8.2-6.6c6.8-2.7,14-1.3,19.4,3.8c2.4,2.3,4.4,5.9,5.1,9.2
			c0.9,4.6,0.2,8.9-2.3,13.1c-2.7,4.5-6.2,7.1-11.6,8.4C170,12670.6,167.9,12670.8,166.5,12670.6z M171.1,12665.6
			c4.2-1,7.2-3.5,9.2-7.6c0.9-1.9,1.1-2.9,1.1-5.5c0-2.7-0.2-3.6-1.2-5.7c-0.7-1.5-1.5-2.6-2.6-3.8c-3.9-3.8-8.4-5-13.8-3.4
			c-3.5,1-6.2,3.4-8,7c-1.7,3.4-1.9,7.7-0.4,11c1.4,3.2,3.9,5.7,7.1,7.2C165.3,12666.1,167.9,12666.4,171.1,12665.6z"/>
	</g>
</g>
</svg>
