<?xml version="1.0" encoding="utf-8"?>
<!-- Generator: Adobe Illustrator 25.3.0, SVG Export Plug-In . SVG Version: 6.00 Build 0)  -->
<svg version="1.1" id="Layer_1" xmlns="http://www.w3.org/2000/svg" xmlns:xlink="http://www.w3.org/1999/xlink" x="0px" y="0px"
	 viewBox="0 0 31.6 26.5" style="enable-background:new 0 0 31.6 26.5;" xml:space="preserve">
<style type="text/css">
	.st0{fill:#FFADA4;stroke:#000000;stroke-miterlimit:10;}
	.st1{opacity:0.16;enable-background:new    ;}
</style>
<path class="st0" d="M26.1,0.5H5.5c-2.8,0-5,2.2-5,5v11.6c0,2.8,2.2,5,5,5h8.2l-0.4,3.7l8.6-3.7h4.2c2.8,0,5-2.2,5-5V5.5
	C31.1,2.8,28.8,0.5,26.1,0.5z"/>
<g>
	<g>
		<path d="M7.5,6H6.2C6,6,5.9,5.9,5.8,5.8c0-0.2,0-0.3-0.1-0.4c0-0.1,0-0.7,0.5-1.1c0.2-0.2,0.5-0.2,0.7-0.2h0.6
			c0.2,0,0.3-0.1,0.3-0.3V3.2c0-0.2-0.1-0.3-0.3-0.3H7.1c-0.2,0-0.4,0-0.7,0C5.8,3,5.4,3.4,5.3,3.5C4.8,4,4.6,4.5,4.6,4.7l0,0
			c0,0.1,0,0.2-0.1,0.3c0,0.2-0.1,0.3-0.1,0.5c0,0.5,0,0.9,0,1.4l0,0v2c0,0.5,0.4,0.8,0.9,0.8h2.2c0.5,0,0.9-0.4,0.9-0.8v-2
			C8.4,6.4,8,6,7.5,6z"/>
		<path class="st1" d="M9.4,6.6h1.3c0.1,0,0.3,0.1,0.3,0.2c0.1,0.1,0.1,0.2,0.1,0.4c0,0.1,0,0.7-0.5,1.1c-0.2,0.2-0.5,0.2-0.7,0.2
			H9.4c-0.2,0-0.3,0.1-0.3,0.3v0.6c0,0.2,0.1,0.3,0.3,0.3h0.4c0.2,0,0.4,0,0.7,0c0.6-0.1,1-0.5,1.1-0.6c0.5-0.4,0.7-0.9,0.7-1.2l0,0
			c0-0.1,0-0.2,0.1-0.3c0-0.2,0.1-0.3,0.1-0.5c0-0.5,0-0.9,0-1.4l0,0v-2c0-0.5-0.4-0.8-0.9-0.8H9.3c-0.5,0-0.9,0.4-0.9,0.8v2
			C8.5,6.2,8.9,6.6,9.4,6.6z"/>
	</g>
	<g transform="translate(0.000000,1280.000000) scale(0.100000,-0.100000)">
		<path class="st1" d="M240,12783.2c-3.2-0.4-4-0.4-4.3-0.5c-0.4-0.1-1.1-6.4-1.3-11.5l-0.1-2l-1.8-0.5c-0.9-0.2-2.3-0.7-3-0.9
			c-1.7-0.7-5.3-2.5-6.3-3.1c-0.5-0.2-0.8-0.5-0.8-0.5s-2.4,1.9-5.2,4.3c-2.8,2.4-5.2,4.3-5.3,4.4c-0.4,0.1-3.7-2.6-6-5.2
			c-2.4-2.4-5-5.8-4.9-6c0.7-0.9,3.3-4.2,5.6-6.9c1.5-1.8,2.8-3.3,2.8-3.4c0.1-0.1-0.1-0.6-0.6-1.3c-1.1-1.7-2.4-4.4-2.8-6
			c-0.2-0.8-0.7-2.1-0.9-2.7c-0.2-0.6-0.4-1.3-0.4-1.4c0-0.1-0.4-0.2-1.2-0.4c-6.3-0.6-12.2-1.3-12.3-1.4c-0.5-0.5-0.8-6.9-0.6-10.3
			c0.2-2.4,0.6-5,0.7-5.2c0.1-0.1,4.7-0.6,12.1-1.2l1.2-0.1l0.1-0.7c0.1-0.4,0.2-0.9,0.4-1.4c0.1-0.4,0.6-1.5,0.8-2.6
			c0.6-1.9,1.9-4.6,3-6.3c0.4-0.5,0.6-1.1,0.6-1.2s-1.3-1.7-2.8-3.6c-4.3-5.1-5.6-6.8-5.5-7c0.6-0.9,3.1-4,4.9-5.8
			c2.4-2.4,6-5.5,6.3-5.2c0.1,0.1,1.5,1.4,3.4,2.8c1.8,1.5,4,3.3,4.9,4c0.8,0.7,1.7,1.4,1.9,1.5c0.2,0.1,0.5,0.1,2.1-0.8
			c2.1-1.2,4.7-2.3,7.4-3c0.9-0.2,1.9-0.6,2-0.6c0.1-0.1,0.4-1.8,0.7-4.9c0.5-4.6,0.9-8.4,1.1-8.7c0.1-0.4,5-0.6,9.1-0.5
			c3.3,0.1,6.5,0.4,6.8,0.6c0,0,0.4,2.8,0.6,6.3c0.4,3.4,0.6,6.4,0.7,6.8c0.1,0.6,0.1,0.6,2.8,1.4c2.4,0.7,5.5,2,7.2,3.2
			c0.7,0.5,1.4,0.8,1.5,0.8s1.1-0.8,2.1-1.8c3.7-3.2,8.3-6.8,8.5-6.8c0.5,0.1,2.3,1.5,3.2,2.5c2,1.9,7.7,8.3,7.7,8.8
			c0,0-1.8,2.3-4,4.9c-2.3,2.6-4.2,5-4.4,5.2l-0.4,0.5l0.9,1.8c1.3,2.4,2.5,5.5,3,7.5l0.5,1.7l3,0.2c1.7,0.1,4.7,0.5,6.9,0.6
			l3.9,0.4l0.1,0.5c0.2,0.9,0.5,3.4,0.5,6c0.1,3.8-0.2,9.2-0.7,9.6c-0.1,0.1-3.2,0.4-6.8,0.7c-3.7,0.4-6.6,0.6-6.8,0.7
			c-0.1,0-0.2,0.5-0.2,0.9c-0.5,2.1-1.8,5.8-3.3,8.5l-1.1,1.9l0.6,0.7c0.4,0.5,2.3,2.7,4.3,5.2c2,2.4,3.7,4.5,3.7,4.6
			c0.1,0.2-1.2,1.8-3.2,4.2c-2.4,2.6-7.7,7.2-8.1,6.9c-1.3-0.9-6-4.9-7.8-6.3c-1.2-0.9-2.3-1.9-2.4-2c-0.2-0.1-0.8,0.1-3.7,1.5
			c-2.5,1.2-3.9,1.9-5.2,2.3c-0.9,0.2-1.9,0.5-2.1,0.5c-0.4,0-0.4,0-0.8,4c-0.2,3.1-1.1,9.7-1.1,9.7c-0.1,0.1-2,0.4-4,0.5
			C245.3,12783.3,241.3,12783.3,240,12783.2z M247.4,12749.8c3.4-0.6,6.9-2.4,9.7-5.3c2.8-2.8,4.6-5.9,5.3-9.6
			c1.7-7.9-1.5-15.9-8.3-20.4c-3.1-2-6-3-9.8-3.1c-3.6-0.1-6.2,0.4-9.2,1.9c-3.8,1.9-6.6,4.6-8.8,8.5c-1.5,3-2.1,5.5-2.1,9.1
			c0,4.5,1.2,8.1,3.9,11.5c3.4,4.4,7.9,7.1,12.7,7.5C242.5,12750,246.1,12750,247.4,12749.8z"/>
		<path class="st1" d="M240,12746.9c-5.8-1.3-10.6-5.7-12.5-11.6c-0.4-1.3-0.5-1.7-0.5-4.5c0-3.3,0.1-3.8,1.1-6.3
			c1.1-2.7,3.8-6,6.4-7.8c1.4-0.9,3.4-1.9,5.1-2.3c2-0.5,5.9-0.5,7.8,0c2.3,0.6,3.8,1.4,5.7,2.7c5.1,3.8,7.6,9.4,6.9,15.5
			c-0.5,4-2,7.1-4.9,9.8c-2.1,2-4.4,3.3-7.1,4.2C246.2,12747.3,242.2,12747.4,240,12746.9z M246.2,12742.8c3.7-0.7,7-3.3,8.5-6.5
			c0.2-0.6,0.7-1.7,0.8-2.4c0.2-1.2,0.4-1.7,0.2-3.8c-0.1-2.1-0.1-2.6-0.6-3.8c-1.2-3.7-4.7-6.9-8.8-7.9c-1.2-0.4-4.6-0.4-5.7-0.1
			c-2.4,0.6-4.3,1.8-5.9,3.4c-0.7,0.7-1.5,1.7-1.8,2.1c-3.6,5.9-1.7,13.8,4.2,17.2c1.2,0.7,3,1.4,4.2,1.5
			C242.5,12743.1,245,12743,246.2,12742.8z"/>
		<path d="M179.7,12713.8c-1.2-3.1-2.6-6.9-4-10.9l-1.5-4.4h-1.9c-3.7,0-9.4-0.7-12.6-1.7c-1.1-0.4-2-0.6-2.1-0.5
			c0,0-0.6,0.8-1.2,1.8c-2.3,3.2-9.1,12.6-9.1,12.6c-0.1,0-2.8-1.1-3.4-1.4c-0.4-0.1-1.2-0.6-1.8-0.9c-0.7-0.4-1.9-0.9-2.8-1.5
			c-0.8-0.5-2.4-1.4-3.3-1.9c-1.7-0.9-4-2.6-5.5-3.9l-0.7-0.7l1.9-4.2c1.1-2.3,2.7-5.8,3.7-7.9l1.8-3.8l-1.2-1.2
			c-3.1-3.2-6.9-8.2-8.2-10.8c-0.2-0.5-0.5-0.9-0.6-0.9c-0.1,0-2.4,0.4-5,0.8c-5.2,0.9-12.3,2-12.5,2c-0.1-0.1-1.7-3.9-2.3-5.7
			c-0.8-2.4-2.1-8.9-2.7-13.4l-0.1-0.8l8.1-3.1l8.1-3.1v-1.5c0.1-2.7,0.4-6,0.7-7.8c0.1-0.9,0.5-2.3,0.6-3s0.5-1.9,0.6-2.6
			c0.2-0.7,0.4-1.4,0.4-1.5s-1.5-1.3-3.3-2.6c-1.8-1.3-5-3.6-7-5.1c-3.3-2.4-3.7-2.7-3.7-3.1c0.4-1.4,3.4-7.4,5.6-10.8
			c1.2-1.9,3.6-5.2,4.3-6l0.5-0.6l2.8,1.3c2.7,1.3,11.7,5.5,12.7,5.8l0.5,0.2l2.1-2c2.7-2.5,4-3.6,7.7-5.8c2.3-1.3,3-1.9,2.8-2.1
			c0-0.1-0.4-2.3-0.7-4.6c-0.7-4.3-1.9-12-1.9-12.3c0-0.1,0.2-0.2,0.5-0.4c3.6-1.4,6.8-2.4,11.4-3.6c3.1-0.7,7.6-1.5,7.7-1.3
			c0.2,0.4,4.2,10.6,5.7,14.8l0.6,1.8h2.4c4.2,0,7.1,0.5,11.4,1.7c1.9,0.6,2.4,0.6,2.5,0.5s2.5-3.4,5.2-7.2c2.7-3.9,5-7.1,5.1-7.1
			c0-0.1,1.4,0.6,5.8,2.7c1.8,0.8,3.9,2.1,5.5,3.2c2.4,1.5,5.3,3.7,6,4.5c0.2,0.2,0.2,0.4-1.3,3.8c-0.8,2-2.5,5.6-3.7,8.1l-2.1,4.5
			l1.9,2c2.6,2.7,4.9,5.9,6.5,8.8c0.4,0.7,0.8,1.4,0.8,1.4c0.1,0,1.5-0.1,3.2-0.5c8.9-1.5,14.1-2.4,14.2-2.3c0.4,0.1,2.8,7.2,3.6,10
			c0.1,0.6,0.4,1.2,0.4,1.4c0.1,0.4,1.2,6,1.3,7.6l0.1,0.7l-0.7,0.4c-0.9,0.5-7.7,3-12.2,4.6l-3.7,1.3v2.5c0,2.8-0.1,4.5-0.7,7.1
			c-0.2,1.5-1.1,5-1.3,6c-0.1,0.2,0.7,0.8,3,2.5c3.4,2.5,11.1,8.2,11.3,8.4c0.1,0.1-0.9,2.7-2.3,5.3c-1.9,3.7-4.3,7.5-6.8,10.7
			l-1.2,1.5l-2.1-0.9c-3-1.3-7.7-3.4-11-5.1l-2.7-1.3l-2.1,2c-2.3,2.1-5,4.3-6.9,5.3c-0.9,0.6-3,1.9-3.3,2.1c-0.1,0.1,0.1,2,0.5,4.3
			c1.8,11.4,2.1,13.4,2,13.4c0,0-1.2,0.5-2.5,0.9c-2.8,1.1-6.4,2.3-6.9,2.3c-0.2,0-0.7,0.1-1.3,0.4c-1.3,0.5-7.8,1.8-8.8,1.8
			C180.2,12714.9,180,12714.7,179.7,12713.8z M176.7,12671.9c4.4-0.8,9-3,12.3-5.8c3.9-3.4,7.4-9.6,8.3-14.9c0.4-2,0.4-5.6-0.1-7.8
			c-0.7-4-2.5-8.4-4.5-11.1c-3.7-4.9-10.1-8.8-16.2-9.8c-1.8-0.4-5.3-0.4-7.2,0c-3.7,0.6-7.7,2.1-10.3,3.7c-5.7,3.7-10,10-11.3,16.8
			c-0.4,2-0.4,5.7,0,7.9c1.4,8.2,5.2,13.8,12.2,18c1.8,1.1,4.6,2.3,6.9,2.8C169.7,12672.3,173.6,12672.5,176.7,12671.9z"/>
		<path d="M171,12668.7c-3.4-0.4-5.3-0.9-8.2-2.5c-5.6-2.8-8.9-7.1-10.7-13.4c-0.8-3-0.9-3.8-0.9-6.3c0-2.3,0.2-4,0.8-5.9
			c0.4-1.2,1.8-4.2,1.9-4.2c0,0,0.6-0.7,1.1-1.4c2.4-3.6,5.7-6.2,9.7-7.8c8.1-3.2,16.6-1.5,23,4.5c2.8,2.7,5.2,7,6,10.9
			c1.1,5.5,0.2,10.6-2.7,15.5c-3.2,5.3-7.4,8.4-13.8,10C175.2,12668.7,172.7,12668.9,171,12668.7z M176.5,12662.7
			c5-1.2,8.5-4.2,10.9-9c1.1-2.3,1.3-3.4,1.3-6.5c0-3.2-0.2-4.3-1.4-6.8c-0.8-1.8-1.8-3.1-3.1-4.5c-4.6-4.5-10-5.9-16.4-4
			c-4.2,1.2-7.4,4-9.5,8.3c-2,4-2.3,9.1-0.5,13c1.7,3.8,4.6,6.8,8.4,8.5C169.6,12663.3,172.7,12663.7,176.5,12662.7z"/>
	</g>
</g>
</svg>
