<?xml version="1.0" encoding="utf-8"?>
<!-- Generator: Adobe Illustrator 25.3.0, SVG Export Plug-In . SVG Version: 6.00 Build 0)  -->
<svg version="1.1" id="Layer_1_1_" xmlns="http://www.w3.org/2000/svg" xmlns:xlink="http://www.w3.org/1999/xlink" x="0px" y="0px"
	 viewBox="0 0 10 8.6" style="enable-background:new 0 0 10 8.6;" xml:space="preserve">
<style type="text/css">
	.st0{opacity:0.16;enable-background:new    ;}
	.st1{fill:#E5CB91;}
	.st2{fill:#FFF59D;}
	.st3{fill:#5C6BC0;}
	.st4{fill:#9FA8DA;}
</style>
<g>
	<g>
		<path d="M1.6,2.5H0.9c-0.1,0-0.1-0.1-0.2-0.1c0-0.1,0-0.1-0.1-0.2c0,0,0-0.4,0.2-0.6c0.2,0,0.3,0,0.4-0.1h0.3
			c0.1,0,0.2-0.1,0.2-0.1V1.1C1.7,1,1.6,1,1.5,1H1.3c0,0-0.2,0-0.3,0C0.7,1.1,0.5,1.2,0.4,1.3C0.2,1.5,0.1,1.8,0.1,1.9l0,0V2
			c0,0.1,0,0.2,0,0.3C0,2.5,0,2.8,0,3l0,0v1c0,0.2,0.2,0.4,0.5,0.4h1.1C1.8,4.4,2,4.2,2,4V3C2,2.7,1.8,2.5,1.6,2.5z"/>
		<path class="st0" d="M2.7,4.5h0.7c0.1,0,0.1,0.1,0.2,0.1s0,0.1,0.1,0.2c0,0,0,0.4-0.2,0.6C3.3,5.5,3.2,5.5,3.1,5.5H2.8
			c-0.1,0-0.2,0.1-0.2,0.1V6c0,0.1,0.1,0.1,0.2,0.1H3c0.1,0,0.2,0,0.3,0C3.6,6,3.8,5.8,3.9,5.8c0.2-0.2,0.3-0.5,0.4-0.6l0,0V5.1
			c0-0.1,0-0.2,0-0.3c0-0.2,0-0.5,0-0.7l0,0v-1c0-0.2-0.2-0.4-0.5-0.4H2.7c-0.2,0-0.5,0.2-0.5,0.4v1C2.3,4.3,2.5,4.5,2.7,4.5z"/>
	</g>
	<g>
		<path d="M8.7,6.7H8.4c0,0-0.1,0-0.1-0.1V6.5c0,0,0-0.2,0.1-0.3c0.1,0,0.1-0.1,0.2-0.1h0.2c0,0,0.1,0,0.1-0.1l0,0
			c0,0,0-0.1-0.1-0.1H8.6c0,0-0.1,0-0.2,0C8.3,6,8.2,6,8.2,6.1C8.1,6.2,8,6.3,8,6.4l0,0c0,0,0,0,0,0.1v0.1c0,0.1,0,0.2,0,0.3l0,0
			v0.5c0,0.1,0.1,0.2,0.2,0.2h0.6C8.9,7.6,9,7.5,9,7.4V6.9C9,6.8,8.9,6.7,8.7,6.7z"/>
		<path class="st0" d="M9.2,5.8h0.3c0,0,0.1,0,0.1,0.1V6c0,0,0,0.2-0.1,0.3c-0.1,0-0.1,0.1-0.2,0.1H9.2c0,0-0.1,0-0.1,0.1v0.2
			c0,0,0,0.1,0.1,0.1h0.1c0,0,0.1,0,0.2,0c0.2,0,0.2-0.1,0.3-0.2C9.9,6.3,9.9,6.2,10,6.1l0,0c0,0,0,0,0-0.1l0,0c0-0.1,0-0.2,0-0.3
			l0,0V5.1C10,5,9.9,4.9,9.8,4.9H9.2C9.1,4.9,9,5,9,5.1v0.5C9,5.7,9.1,5.8,9.2,5.8z"/>
	</g>
	<g>
		<path class="st1" d="M8.8,2.9c0-1.7-1.4-3.1-3.2-2.9C4.4,0.2,3.3,1.3,3.1,2.6c-0.1,1,0.3,2,1,2.6c0.3,0.3,0.5,0.7,0.5,1.1v0.1h2.6
			l0,0c0-0.4,0.2-0.8,0.5-1.1C8.4,4.7,8.8,3.9,8.8,2.9z"/>
		<path class="st2" d="M7.4,2.5L6.7,2.1c-0.1,0-0.2,0-0.2,0L5.9,2.4L5.3,2.1c-0.1,0-0.2,0-0.2,0L4.4,2.5c0,0-0.1,0.1-0.1,0.2
			c0,0.1,0,0.1,0,0.2L5.2,4v2.4h0.5V3.8V3.7L4.9,2.8l0.3-0.2L5.7,3c0.1,0,0.2,0,0.2,0l0.5-0.4l0.3,0.2L6.1,3.7v0.1v2.5h0.5V3.9
			l0.9-1.1c0,0,0.1-0.1,0-0.2C7.4,2.6,7.4,2.5,7.4,2.5z"/>
		<circle class="st3" cx="5.9" cy="7.9" r="0.7"/>
		<path class="st4" d="M6.3,8.1H5.4c-0.5,0-0.9-0.4-0.9-0.9V6.1h2.7v1.1C7.2,7.7,6.8,8.1,6.3,8.1z"/>
		<g>
			<path class="st3" d="M7.2,7.2L4.6,7.6C4.7,7.7,4.8,7.9,5,8l2.1-0.3C7.2,7.6,7.2,7.4,7.2,7.2z"/>
			<polygon class="st3" points="4.5,6.7 4.5,7.2 7.2,6.8 7.2,6.3 			"/>
		</g>
	</g>
	<g>
		<path d="M8.5,1.4H8.3c0,0,0,0-0.1,0c0,0,0,0,0-0.1c0,0,0-0.1,0.1-0.2h0.1h0.1l0,0V1l0,0h0H8.4C8.3,1,8.2,1,8.2,1
			C8.1,1.1,8.1,1.2,8.1,1.2l0,0l0,0v0.1c0,0.1,0,0.1,0,0.2l0,0v0.3c0,0.1,0,0.2,0.1,0.2h0.3c0.1,0,0.1-0.1,0.1-0.1V1.5
			C8.7,1.5,8.6,1.4,8.5,1.4z"/>
		<path class="st0" d="M8.8,0.9H9c0,0,0,0,0.1,0s0,0,0,0.1c0,0,0,0.1-0.1,0.2H8.9H8.8l0,0v0.1l0,0h0.1H9c0.1,0,0.2-0.1,0.2-0.1
			C9.3,1.1,9.3,1.1,9.3,1l0,0l0,0V0.9c0-0.1,0-0.1,0-0.2l0,0V0.5c0-0.1-0.1-0.1-0.1-0.1H8.8c-0.1,0-0.1,0.1-0.1,0.1v0.3
			C8.7,0.8,8.7,0.9,8.8,0.9z"/>
	</g>
</g>
</svg>
