<?xml version="1.0" encoding="utf-8"?>
<!-- Generator: Adobe Illustrator 25.3.0, SVG Export Plug-In . SVG Version: 6.00 Build 0)  -->
<svg version="1.1" id="Capa_1" xmlns="http://www.w3.org/2000/svg" xmlns:xlink="http://www.w3.org/1999/xlink" x="0px" y="0px"
	 viewBox="0 0 10 10" style="enable-background:new 0 0 10 10;" xml:space="preserve">
<style type="text/css">
	.st0{fill:none;stroke:#010202;stroke-width:0.5;stroke-linecap:round;stroke-miterlimit:10;}
	.st1{fill:none;stroke:#090A0A;stroke-width:0.15;stroke-linecap:round;stroke-miterlimit:10;}
	.st2{fill:none;stroke:#010202;stroke-width:0.15;stroke-linecap:round;stroke-miterlimit:10;}
	.st3{fill:#020203;}
	.st4{fill:#B3B2B2;}
	.st5{fill:none;stroke:#0B0C0C;stroke-width:0.5;stroke-linecap:round;stroke-linejoin:round;stroke-miterlimit:10;}
	.st6{fill:#BE9DCA;}
	.st7{fill:none;stroke:#BE9DCA;stroke-width:0.25;stroke-linecap:round;stroke-miterlimit:10;}
</style>
<path class="st0" d="M1.4,7.1C1.5,7.3,2.9,9.3,5,9.3c2,0,4.3-1.8,4.3-4.3c0-2.4-1.9-4.3-4.3-4.3S0.7,2.6,0.7,5c0,0.1,0,0.2,0,0.3"/>
<path class="st1" d="M4.1,2.9c0.8,0,1.7,0,2.5,0c0.1,0,0.3,0,0.5,0.2c0.1,0.1,0.2,0.3,0.2,0.5c0,0,0,0.4,0,0.4"/>
<path class="st2" d="M5.8,7.1c-0.8,0-1.7,0-2.5,0c-0.1,0-0.3,0-0.5-0.2C2.7,6.7,2.6,6.5,2.6,6.3c0-0.1,0-0.3,0-0.4"/>
<g>
	<path class="st3" d="M2.9,3.2H2.6c0,0-0.1,0-0.1-0.1c0,0,0-0.1,0-0.1c0,0,0-0.1,0.1-0.2c0,0,0.1,0,0.1-0.1h0.1c0,0,0.1,0,0.1-0.1
		V2.7c0,0,0-0.1-0.1-0.1H2.8c0,0-0.1,0-0.1,0c-0.1,0-0.2,0.1-0.2,0.1C2.3,2.8,2.3,2.9,2.3,3l0,0c0,0,0,0,0,0.1c0,0,0,0.1,0,0.1
		c0,0.1,0,0.2,0,0.3c0,0,0,0,0,0v0.4c0,0.1,0.1,0.2,0.2,0.2h0.4C3,3.9,3,3.9,3,3.8V3.4C3,3.3,3,3.2,2.9,3.2z"/>
	<path class="st4" d="M3.2,3.3h0.3c0,0,0.1,0,0.1,0.1s0,0.1,0,0.1c0,0,0,0.1-0.1,0.2c0,0-0.1,0-0.1,0.1H3.2c0,0-0.1,0-0.1,0.1v0.1
		c0,0,0,0.1,0.1,0.1h0.1c0,0,0.1,0,0.1,0c0.1,0,0.2-0.1,0.2-0.1c0.1-0.1,0.1-0.2,0.1-0.2l0,0c0,0,0,0,0-0.1c0,0,0-0.1,0-0.1
		c0-0.1,0-0.2,0-0.3c0,0,0,0,0,0V2.8c0-0.1-0.1-0.2-0.2-0.2H3.2C3.1,2.6,3,2.7,3,2.8v0.4C3.1,3.2,3.1,3.3,3.2,3.3z"/>
</g>
<g>
	<path class="st3" d="M6.8,6.7H6.5c0,0-0.1,0-0.1-0.1s0-0.1,0-0.1c0,0,0-0.1,0.1-0.2c0,0,0.1,0,0.1-0.1h0.1c0,0,0.1,0,0.1-0.1V6.1
		c0,0,0-0.1-0.1-0.1H6.7c0,0-0.1,0-0.1,0c-0.1,0-0.2,0.1-0.2,0.1C6.2,6.3,6.2,6.4,6.2,6.4l0,0c0,0,0,0,0,0.1c0,0,0,0.1,0,0.1
		c0,0.1,0,0.2,0,0.3c0,0,0,0,0,0v0.4c0,0.1,0.1,0.2,0.2,0.2h0.4C6.9,7.4,7,7.3,7,7.2V6.8C6.9,6.7,6.9,6.7,6.8,6.7z"/>
	<path class="st4" d="M7.1,6.8h0.3c0,0,0.1,0,0.1,0.1s0,0.1,0,0.1c0,0,0,0.1-0.1,0.2c0,0-0.1,0-0.1,0.1H7.1c0,0-0.1,0-0.1,0.1v0.1
		c0,0,0,0.1,0.1,0.1h0.1c0,0,0.1,0,0.1,0c0.1,0,0.2-0.1,0.2-0.1C7.7,7.2,7.7,7.1,7.7,7l0,0c0,0,0,0,0-0.1c0,0,0-0.1,0-0.1
		c0-0.1,0-0.2,0-0.3c0,0,0,0,0,0V6.2c0-0.1-0.1-0.2-0.2-0.2H7.1C7,6.1,7,6.1,7,6.2v0.4C7,6.7,7,6.8,7.1,6.8z"/>
</g>
<polyline class="st5" points="0.2,4.8 0.7,5.3 1.2,4.8 "/>
<circle class="st6" cx="5" cy="5" r="0.4"/>
<polyline class="st7" points="4.5,4.2 5,5 5.6,4.6 "/>
</svg>
