<?xml version="1.0" encoding="utf-8"?>
<!-- Generator: Adobe Illustrator 25.3.0, SVG Export Plug-In . SVG Version: 6.00 Build 0)  -->
<svg version="1.1" id="Capa_1" xmlns="http://www.w3.org/2000/svg" xmlns:xlink="http://www.w3.org/1999/xlink" x="0px" y="0px"
	 viewBox="0 0 10 10" style="enable-background:new 0 0 10 10;" xml:space="preserve">
<style type="text/css">
	.st0{fill:none;stroke:#BF9ECB;stroke-width:0.15;stroke-linecap:round;stroke-miterlimit:10;}
	.st1{fill:none;stroke:#A385AF;stroke-width:0.5;stroke-linecap:round;stroke-linejoin:round;stroke-miterlimit:10;}
	.st2{fill:#BE9DCA;}
	.st3{fill:none;stroke:#BE9DCA;stroke-width:0.25;stroke-linecap:round;stroke-miterlimit:10;}
</style>
<path class="st0" d="M4.1,2.9c0.8,0,1.7,0,2.5,0c0.1,0,0.3,0,0.5,0.2c0.1,0.1,0.2,0.3,0.2,0.5V4"/>
<path class="st0" d="M2.6,6v0.4c0,0.2,0.1,0.4,0.2,0.5C3,7.1,3.2,7.1,3.3,7.1c0.8,0,1.7,0,2.5,0"/>
<polyline class="st1" points="0.3,5.2 0.7,5.7 1.1,5.2 "/>
<circle class="st2" cx="5" cy="5" r="0.4"/>
<polyline class="st3" points="5.3,4.1 5,5 5.7,5.2 "/>
<path class="st1" d="M1.1,6.8C1.8,8.3,3.3,9.3,5,9.3c2.4,0,4.3-1.9,4.3-4.3S7.4,0.7,5,0.7S0.7,2.6,0.7,5c0,0.2,0,0.3,0,0.5"/>
</svg>
