<?xml version="1.0" encoding="utf-8"?>
<!-- Generator: Adobe Illustrator 25.1.0, SVG Export Plug-In . SVG Version: 6.00 Build 0)  -->
<svg version="1.1" id="Layer_1" xmlns="http://www.w3.org/2000/svg" xmlns:xlink="http://www.w3.org/1999/xlink" x="0px" y="0px"
	 viewBox="0 0 31.6 26.5" style="enable-background:new 0 0 31.6 26.5;" xml:space="preserve">
<style type="text/css">
	.st0{enable-background:new    ;}
	.st1{opacity:0.16;enable-background:new    ;}
</style>
<g>
	<path class="st0" d="M12.2,12.2H7.1c-0.5-0.2-1-0.5-1.3-1c-0.3-0.5-0.3-1-0.4-1.4c0-0.2-0.1-2.7,1.8-4.2c0.9-0.7,1.8-0.9,2.5-1h2.4
		c0.6,0,1.2-0.5,1.2-1V1.3c0-0.6-0.5-1-1.2-1h-1.6C9.9,0.2,9,0.2,7.9,0.4C5.6,0.9,4.1,2.2,3.6,2.7C1.8,4.4,1.1,6.3,0.9,7.2l0,0
		c-0.1,0.3-0.1,0.7-0.3,1c-0.1,0.7-0.3,1.3-0.3,2c0.1,1.8,0.1,3.6,0.1,5.2c0,0,0,0,0,0.1V23c0,1.8,1.6,3.2,3.5,3.2h8.4
		c1.9,0,3.5-1.4,3.5-3.2v-7.6C15.7,13.7,14.2,12.2,12.2,12.2z"/>
	<path class="st1" d="M19.4,14.3h5.1c0.5,0.2,1,0.5,1.3,1c0.3,0.5,0.3,1,0.4,1.4c0,0.2,0.1,2.7-1.8,4.2c-0.9,0.7-1.8,0.9-2.5,1h-2.4
		c-0.6,0-1.2,0.5-1.2,1v2.3c0,0.6,0.5,1,1.2,1H21c0.6,0.1,1.5,0.1,2.6-0.1c2.4-0.5,3.8-1.8,4.4-2.3c1.8-1.6,2.5-3.6,2.7-4.4l0,0
		c0.1-0.3,0.1-0.7,0.3-1c0.1-0.7,0.3-1.3,0.3-2c-0.1-1.8-0.1-3.6-0.1-5.2c0,0,0,0,0-0.1V3.5c0-1.8-1.6-3.2-3.5-3.2h-8.4
		c-1.9,0-3.5,1.4-3.5,3.2v7.6C15.9,12.9,17.5,14.3,19.4,14.3z"/>
</g>
</svg>
