<?xml version="1.0" encoding="utf-8"?>
<!-- Generator: Adobe Illustrator 25.3.0, SVG Export Plug-In . SVG Version: 6.00 Build 0)  -->
<svg version="1.1" id="Capa_1" xmlns="http://www.w3.org/2000/svg" xmlns:xlink="http://www.w3.org/1999/xlink" x="0px" y="0px"
	 viewBox="0 0 11.9 10" style="enable-background:new 0 0 11.9 10;" xml:space="preserve">
<style type="text/css">
	.st0{fill:#986A9E;}
	.st1{fill:#B290C2;}
	.st2{fill:none;stroke:#757575;stroke-width:0.2;stroke-miterlimit:10;}
	.st3{font-family:'MyriadPro-Regular';}
	.st4{font-size:3.5891px;}
	.st5{font-size:1.6358px;}
</style>
<g>
	<g>
		<g>
			<g>
				<path class="st0" d="M111.6-353.9c2-0.6,4-1.1,6-1.4c-0.7,0.1-1.3,0.2-2,0.3c2.4-0.3,4.7-0.3,7.1,0c-0.7-0.1-1.3-0.2-2-0.3
					c2,0.3,4,0.8,5.9,1.6c-0.6-0.3-1.2-0.5-1.8-0.8c4.5,1.9,8.5,4.9,13.5,5.7c3.8,0.6,7.3,0.6,11.1-0.1c2.8-0.5,5.3-1.5,7.9-2.6
					c1.6-0.7,3-2.9,3.4-4.5c0.5-1.8,0.3-4.2-0.8-5.8c-1-1.6-2.6-3-4.5-3.4c-2.1-0.5-3.8-0.1-5.8,0.8c-0.1,0-0.2,0.1-0.3,0.1
					c0.6-0.3,1.2-0.5,1.8-0.8c-2.2,0.9-4.5,1.6-6.8,1.9c0.7-0.1,1.3-0.2,2-0.3c-1.8,0.2-3.6,0.2-5.4,0c0.7,0.1,1.3,0.2,2,0.3
					c-1.7-0.2-3.3-0.7-4.9-1.3c0.6,0.3,1.2,0.5,1.8,0.8c-2.1-0.9-4-2.1-6.1-3.1c-2.6-1.2-5.3-2.3-8.1-2.8
					c-6.1-1.1-12.2-0.6-18.1,1.3c-3.7,1.2-6.5,5.3-5.2,9.2C103.6-355.4,107.6-352.7,111.6-353.9L111.6-353.9z"/>
			</g>
		</g>
		<g>
			<g>
				<path class="st0" d="M102.9-389.3c7.1-3,13.9-6.4,18.6-12.7c2.3-3.1,3.7-6.7,4.2-10.5c0.2-1.9,0-3.7-0.3-5.6
					c-0.1-0.4-0.1-0.8-0.2-1.2c-0.2-1.2,0,0.8,0-0.3c0-0.3,0-0.5,0-0.8c0-0.5,0-0.5,0-0.1c-0.1,0.4,0,0.4,0.1-0.1
					c-0.3,0.6-0.3,0.7,0,0.2c1.3-2.3,0.6-5.6-1.8-6.8c-2.4-1.3-5.4-0.6-6.8,1.8c-1.1,1.9-1.5,4.1-1.3,6.2c0.1,1.1,0.3,2.2,0.5,3.3
					c0.1,0.4,0.4,1.3,0.1,0.3c0.1,0.3,0.1,0.8,0.1,1.2c0,0.4,0,0.8,0,1.2c0,1,0.2-0.9,0,0.2c-0.2,0.7-0.3,1.4-0.5,2.1
					c-0.1,0.2-0.1,0.4-0.2,0.6c0.2-0.5,0.3-0.6,0.1-0.3c-0.2,0.4-0.3,0.7-0.5,1.1c-0.4,0.7-0.8,1.4-1.2,2c-0.3,0.4-0.5,0.6-0.1,0.1
					c-0.3,0.3-0.5,0.6-0.8,0.9c-0.5,0.6-1.1,1.1-1.7,1.7c-0.3,0.3-0.7,0.6-1,0.8c0.8-0.7-0.3,0.2-0.4,0.3c-0.7,0.5-1.4,1-2.2,1.4
					c-3,1.8-6.2,3.2-9.4,4.6c-2.4,1-3.1,4.8-1.8,6.8C97.7-388.6,100.3-388.2,102.9-389.3L102.9-389.3z"/>
			</g>
		</g>
		<g>
			<g>
				<path class="st0" d="M102.5-315.7c1.9,0.1,3.8,0.3,5.8,0.5c0.2,0,1.5,0.2,0.9,0.1c-0.6-0.1,0.8,0.1,0.9,0.1
					c0.9,0.2,1.8,0.3,2.7,0.5c1,0.2,1.9,0.5,2.9,0.8c0.4,0.1,0.9,0.3,1.3,0.5c-0.7-0.4-0.4-0.2,0.2,0.1c0.7,0.3,1.3,0.7,1.9,1.1
					c0.3,0.2,0.6,0.4,0.9,0.6c0.1,0.1,0.2,0.1,0.3,0.2c0.4,0.3,0.4,0.3-0.1-0.1c0.1-0.1,1.5,1.3,1.6,1.5c0.3,0.3,0.5,0.5,0.7,0.8
					c0.8,0.9-0.6-0.9,0.1,0.1c0.4,0.6,0.8,1.2,1.1,1.9c0.5,1-0.2-0.8,0.1,0.1c0.1,0.3,0.2,0.7,0.3,1c0.9,3.4,1,7,4,9.4
					c2,1.7,5.1,2.1,7.1,0c1.7-1.8,2.1-5.3,0-7.1c-0.2-0.1-0.3-0.3-0.5-0.4c0.4,0.6,0.5,0.7,0.3,0.4c-0.7-1,0.1,0.8-0.1-0.1
					c-0.2-0.7-0.4-1.3-0.5-2c-0.3-1.5-0.6-3-1.1-4.5c-1.6-3.9-4.2-6.9-7.5-9.4c-6.6-4.9-15.2-5.6-23.2-6.1c-2.6-0.2-5.1,2.4-5,5
					C97.6-317.8,99.7-315.9,102.5-315.7L102.5-315.7z"/>
			</g>
		</g>
	</g>
	<g>
		<g>
			<g>
				<path class="st0" d="M-139.6-368.4c-5.9-1.9-12-2.4-18.1-1.3c-2.8,0.5-5.4,1.5-7.9,2.7c-2.1,1-4.1,2.3-6.3,3.2
					c0.6-0.3,1.2-0.5,1.8-0.8c-1.6,0.6-3.2,1.1-4.9,1.3c0.7-0.1,1.3-0.2,2-0.3c-1.8,0.2-3.6,0.2-5.4,0c0.7,0.1,1.3,0.2,2,0.3
					c-2.4-0.3-4.6-1-6.8-1.9c0.6,0.3,1.2,0.5,1.8,0.8c-0.1,0-0.2-0.1-0.3-0.1c-1.9-0.8-3.7-1.3-5.8-0.8c-1.7,0.5-3.6,1.8-4.5,3.4
					c-0.9,1.7-1.4,3.8-0.8,5.8c0.6,1.7,1.7,3.7,3.4,4.5c2.5,1.1,5,2.1,7.7,2.6c3.9,0.7,7.4,0.8,11.3,0.1c4.9-0.8,9-3.8,13.5-5.7
					c-0.6,0.3-1.2,0.5-1.8,0.8c1.9-0.8,3.9-1.3,5.9-1.6c-0.7,0.1-1.3,0.2-2,0.3c2.4-0.3,4.7-0.3,7.1,0c-0.7-0.1-1.3-0.2-2-0.3
					c2.1,0.3,4.1,0.8,6,1.4c3.7,1.2,8.3-1.4,9.2-5.2C-133.5-363.2-135.6-367.1-139.6-368.4L-139.6-368.4z"/>
			</g>
		</g>
		<g>
			<g>
				<path class="st0" d="M-129.9-398c-3.2-1.4-6.4-2.8-9.4-4.6c-0.7-0.4-1.5-0.9-2.2-1.4c-0.2-0.1-1.2-0.9-0.4-0.3
					c-0.3-0.2-0.6-0.5-0.8-0.7c-0.6-0.5-1.2-1.1-1.7-1.7c-0.3-0.3-0.5-0.6-0.8-0.9c-0.2-0.3-0.2-0.2,0.2,0.2
					c-0.1-0.2-0.2-0.3-0.3-0.5c-0.4-0.6-0.8-1.2-1.2-1.8c-0.2-0.3-0.4-0.7-0.5-1.1c-0.5-1,0.2,0.7-0.1-0.3c-0.2-0.7-0.4-1.5-0.6-2.2
					c-0.3-1.2,0,1.1,0-0.2c0-0.4,0-0.8,0-1.2c0-0.1,0-1.1,0.1-1.2c0,0.2,0,0.4-0.1,0.5c0-0.3,0.1-0.5,0.1-0.8
					c0.2-1.1,0.4-2.2,0.5-3.3c0.2-2.2-0.2-4.4-1.3-6.2c-1.3-2.3-4.6-3.3-6.8-1.8c-2.3,1.5-3.2,4.4-1.8,6.8c0.5,0.9-0.1-0.8,0.1,0.2
					c-0.2-1.3,0,0.1-0.1,0.4c0,0.2,0,0.4,0,0.6c0.1-0.6,0.1-0.7,0-0.3c-0.1,0.4-0.1,0.8-0.2,1.2c-0.3,2-0.6,3.9-0.3,5.8
					c0.5,3.8,1.8,7.4,4.2,10.5c4.7,6.3,11.6,9.7,18.6,12.7c1.3,0.6,2.4,0.9,3.9,0.5c1.2-0.3,2.4-1.2,3-2.3
					C-127-393.3-127.3-396.9-129.9-398L-129.9-398z"/>
			</g>
		</g>
		<g>
			<g>
				<path class="st0" d="M-134.5-325.7c-8,0.5-16.5,1.2-23.2,6.1c-3.3,2.5-6,5.5-7.5,9.4c-0.6,1.5-0.8,2.9-1.1,4.5
					c-0.1,0.7-0.3,1.4-0.5,2c-0.3,1,0.4-0.9,0,0c-0.3,0.4-0.2,0.4,0.2-0.2c-0.2,0.2-0.3,0.3-0.5,0.4c-2,1.7-1.9,5.4,0,7.1
					c2.1,2,4.9,1.8,7.1,0c2.9-2.4,3.1-5.9,3.9-9.3c0.1-0.4,0.2-0.7,0.3-1c0.4-1.2-0.4,0.6,0.1-0.3c0.4-0.6,0.7-1.2,1.1-1.9
					c0.5-0.9-0.6,0.7,0.1-0.1c0.2-0.3,0.5-0.5,0.7-0.8c0.4-0.4,1.1-1.2,1.6-1.5c-1,0.4-0.1,0.1,0.2-0.1c0.3-0.2,0.6-0.4,0.9-0.6
					c0.6-0.4,1.3-0.7,1.9-1.1c0.3-0.1,1.2-0.7,0.2-0.1c0.3-0.2,0.9-0.4,1.3-0.5c0.9-0.3,1.7-0.6,2.6-0.8c0.9-0.2,1.8-0.4,2.7-0.6
					c0.5-0.1,0.9-0.1,1.4-0.2c-1.1,0.2,0.3,0,0.5-0.1c2-0.2,4-0.4,6-0.5c2.6-0.2,5.1-2.2,5-5C-129.6-323.3-131.7-325.9-134.5-325.7
					L-134.5-325.7z"/>
			</g>
		</g>
	</g>
</g>
<g>
	<polygon class="st1" points="10.6,7.2 2.5,9.3 1.3,3.5 9.3,0.7 	"/>
	<polygon class="st2" points="11.7,7.5 1.7,9.8 0.2,3.3 10.1,0.2 	"/>
	<text transform="matrix(1.0359 0 0 1 3.2479 5.4828)" class="st3 st4">NO</text>
	<text transform="matrix(1.0359 0 0 1 2.9867 7.5561)" class="st3 st5">QUOTES</text>
	<text transform="matrix(1.0359 0 0 1 1.1459 5.2338)" class="st3 st4">“</text>
	<text transform="matrix(1.0359 0 0 1 9.9638 9.0131)" class="st3 st4">“</text>
</g>
</svg>
