<?xml version="1.0" encoding="utf-8"?>
<!-- Generator: Adobe Illustrator 25.3.0, SVG Export Plug-In . SVG Version: 6.00 Build 0)  -->
<svg version="1.1" id="Capa_1" xmlns="http://www.w3.org/2000/svg" xmlns:xlink="http://www.w3.org/1999/xlink" x="0px" y="0px"
	 viewBox="0 0 8.6 8.6" style="enable-background:new 0 0 8.6 8.6;" xml:space="preserve">
<style type="text/css">
	.st0{fill:#6D6D6D;}
	.st1{fill:#F9B00D;}
</style>
<g>
	<path class="st0" d="M8,8.6H0.7C0.3,8.6,0,8.3,0,7.9V0.7c0-0.2,0.1-0.4,0.2-0.5C0.4,0.1,0.6,0,0.7,0C1.2,0,3.1,0,5.6,0
		c1,0.9,2,1.9,2.9,2.8C8.5,3.9,8.5,5.1,8.5,6.3c0,0.6,0,1.1,0.1,1.7C8.4,8.3,8.1,8.5,8,8.6z"/>
	<path class="st1" d="M6.9,4.4H1.7c-0.3,0-0.5,0.2-0.5,0.5v3.4h6.2V4.9C7.5,4.6,7.2,4.4,6.9,4.4z"/>
	<path class="st1" d="M5.3,0.3H1.6c-0.2,0-0.4,0.2-0.4,0.4v1.5c0,0.4,0.3,0.7,0.7,0.7h3.1c0.4,0,0.7-0.3,0.7-0.7V0.6
		C5.6,0.4,5.4,0.3,5.3,0.3z"/>
	<path d="M8.4,2.6L6,0.2C5.9,0.1,5.8,0,5.5,0H0.6C0.3,0,0,0.3,0,0.6V8c0,0.3,0.3,0.6,0.6,0.6H8c0.3,0,0.6-0.3,0.6-0.6V3.1
		C8.6,2.8,8.5,2.7,8.4,2.6z M1.3,0.3h3.9v2c0,0.3-0.2,0.4-0.4,0.4H1.8c-0.3,0-0.4-0.2-0.4-0.4L1.3,0.3L1.3,0.3z M7.3,8.3h-6V5.2
		c0-0.3,0.2-0.4,0.4-0.4h5.1c0.3,0,0.4,0.2,0.4,0.4L7.3,8.3L7.3,8.3z M8.3,8c0,0.2-0.2,0.3-0.3,0.3H7.6V5.2c0-0.4-0.3-0.8-0.8-0.8
		h-5C1.4,4.5,1,4.8,1,5.2v3.1H0.6c-0.2,0-0.3-0.2-0.3-0.3V0.6c0-0.2,0.2-0.3,0.3-0.3H1v2C1,2.7,1.4,3,1.8,3h3c0.4,0,0.8-0.3,0.8-0.8
		v-2h0.1c0.1,0,0.3,0.1,0.3,0.2l2.3,2.3C8.4,2.8,8.4,2.9,8.4,3L8.4,7.8L8.3,8z"/>
	<path d="M3.9,2.3h0.9c0.1,0,0.2-0.1,0.2-0.2V0.8c0-0.1-0.1-0.2-0.2-0.2H3.9c-0.1,0-0.2,0.1-0.2,0.2v1.5C3.7,2.3,3.8,2.3,3.9,2.3z
		 M4,0.9h0.6v1.2H4V0.9z"/>
	<path d="M6.4,5.8H3.7c-0.1,0-0.2,0.1-0.2,0.2s0.1,0.2,0.2,0.2h2.7c0.1,0,0.2-0.1,0.2-0.2C6.5,5.8,6.4,5.8,6.4,5.8z"/>
	<path d="M2.2,6.1h0.9c0.1,0,0.2-0.1,0.2-0.2c0-0.1-0.1-0.2-0.2-0.2H2.2c-0.1,0-0.2,0.1-0.2,0.2C2.1,6,2.2,6.1,2.2,6.1z"/>
	<path d="M6.4,7H2.2C2.2,7,2.1,7,2.1,7.1c0,0.1,0.1,0.2,0.2,0.2h4.1c0.1,0,0.2-0.1,0.2-0.2C6.5,7,6.4,7,6.4,7z"/>
</g>
</svg>
