<?xml version="1.0" encoding="utf-8"?>
<!-- Generator: Adobe Illustrator 25.3.0, SVG Export Plug-In . SVG Version: 6.00 Build 0)  -->
<svg version="1.1" id="Capa_1" xmlns="http://www.w3.org/2000/svg" xmlns:xlink="http://www.w3.org/1999/xlink" x="0px" y="0px"
	 viewBox="0 0 10 10" style="enable-background:new 0 0 10 10;" xml:space="preserve">
<g>
	<g id="Sign_Out">
		<path d="M4.7,9.4H0.6V0.6h4.1C4.9,0.6,5,0.5,5,0.3S4.9,0,4.7,0H0.3C0.1,0,0,0.1,0,0.3v9.4C0,9.9,0.1,10,0.3,10h4.4
			C4.9,10,5,9.9,5,9.7C5,9.5,4.9,9.4,4.7,9.4z"/>
		<path d="M9.9,4.8L7.8,2.6c-0.1-0.1-0.3-0.1-0.4,0C7.2,2.7,7.2,2.9,7.3,3l1.6,1.6H2.5C2.3,4.7,2.2,4.8,2.2,5s0.1,0.3,0.3,0.3h6.4
			L7.3,7c-0.1,0.1-0.1,0.3,0,0.4c0.1,0.1,0.3,0.1,0.4,0l2.2-2.2C10,5.1,10,4.9,9.9,4.8z"/>
	</g>
</g>
</svg>
